PathFileType	4	(X/Y/Z)	C:\Users\Biomechanik\SynologyDrive\AlexP\Athlete_03\Athlete_3_25_03_31\Squat_bar_01\marker_experimental.trc
DataRate	CameraRate	NumFrames	NumMarkers	Units	OrigDataRate	OrigDataStartFrame	OrigNumFrames
200.000000	200.000000	4	55	mm	200.000000	180	482
Frame#	Time	BL			BR			GLAB			RFHD			LFHD			C7			T6			SPINMOL			SPINM2			SPINM3			T12			BELTOL			BELT2			BELT3			SACROL			SACR2			SACR3			LTHOL			LTH2			LTH3			LSHAOL			LSHA2			LSHA3			LHEE			LTOE			LM5			RTHOL			RTH2			RTH3			RSHAOL			RSHA2			RSHA3			RHEE			RTOE			RM5			STRN			XIPH			LACR			LUAOL			LUA2			LUA3			LLAOL			LLA2			LLA3			LWRR			LWRU			RACR			RUAOL			RUA2			RUA3			RLAOL			RLA2			RLA3			RWRR			RWRU			
		X1	Y1	Z1	X2	Y2	Z2	X3	Y3	Z3	X4	Y4	Z4	X5	Y5	Z5	X6	Y6	Z6	X7	Y7	Z7	X8	Y8	Z8	X9	Y9	Z9	X10	Y10	Z10	X11	Y11	Z11	X12	Y12	Z12	X13	Y13	Z13	X14	Y14	Z14	X15	Y15	Z15	X16	Y16	Z16	X17	Y17	Z17	X18	Y18	Z18	X19	Y19	Z19	X20	Y20	Z20	X21	Y21	Z21	X22	Y22	Z22	X23	Y23	Z23	X24	Y24	Z24	X25	Y25	Z25	X26	Y26	Z26	X27	Y27	Z27	X28	Y28	Z28	X29	Y29	Z29	X30	Y30	Z30	X31	Y31	Z31	X32	Y32	Z32	X33	Y33	Z33	X34	Y34	Z34	X35	Y35	Z35	X36	Y36	Z36	X37	Y37	Z37	X38	Y38	Z38	X39	Y39	Z39	X40	Y40	Z40	X41	Y41	Z41	X42	Y42	Z42	X43	Y43	Z43	X44	Y44	Z44	X45	Y45	Z45	X46	Y46	Z46	X47	Y47	Z47	X48	Y48	Z48	X49	Y49	Z49	X50	Y50	Z50	X51	Y51	Z51	X52	Y52	Z52	X53	Y53	Z53	X54	Y54	Z54	X55	Y55	Z55	

181	0.9	203.3052673339844	993.4626464843751	-2235.950927734375	267.4020385742188	1043.03662109375	-216.7441711425781	537.1952514648438	1176.127807617188	-1193.221069335938	487.3665161132812	1203.400268554688	-1130.46337890625	494.6275939941406	1200.008422851562	-1265.945068359375	292.5328369140625	1075.724487304688	-1196.773681640625	164.0524291992188	961.3936157226564	-1203.819946289062	140.3552551269531	938.6254882812501	-1223.094116210938	132.464599609375	932.5737915039064	-1173.962768554688	103.6926498413086	885.0390014648439	-1209.753540039062	74.02334594726562	829.2765502929689	-1208.692626953125	37.6164436340332	813.8998413085939	-1222.65625	36.98830413818359	810.2867431640626	-1172.15380859375	1.338599681854248	762.3956909179689	-1201.933715820312	-49.49139785766602	663.0723876953126	-1227.271484375	-48.38631057739258	659.4440917968751	-1175.880004882812	-63.90099716186523	602.1237182617189	-1205.003051757812	126.7693328857422	480.5266113281251	-1502.495239257812	158.4259338378906	407.9703063964845	-1512.6337890625	173.5031890869141	452.6822509765626	-1531.05908203125	217.4360961914062	302.3291931152345	-1613.380004882812	161.7390441894531	258.4384765625001	-1576.553344726562	204.1976165771484	243.3444061279298	-1599.872924804688	111.8942413330078	71.00518798828134	-1465.783935546875	313.6196594238281	50.268653869629	-1543.3046875	235.2419586181641	25.1152286529542	-1622.892333984375	113.031379699707	467.7434692382813	-911.8260498046875	167.6895599365234	499.4210510253907	-862.8158569335938	163.3022155761719	452.3085327148438	-878.0611572265625	200.0907745361328	314.1026916503907	-805.76416015625	203.61083984375	235.2773895263672	-804.4027709960938	171.6944274902344	264.0921630859376	-829.8075561523438	93.13040161132812	66.47480773925787	-967.6138305664062	280.1735229492188	46.92191314697271	-868.055419921875	189.6603393554688	37.86198425292974	-797.881591796875	400.109619140625	910.5820922851564	-1203.717041015625	354.2496032714844	769.0294189453126	-1199.861694335938	324.9220581054688	1025.721313476562	-1368.02783203125	197.7409515380859	921.1348266601564	-1458.679565429688	145.5643005371094	883.8941040039064	-1445.711059570312	175.0191497802734	864.9508666992189	-1482.825317382812	137.6101989746094	801.2698364257814	-1549.726196289062	206.3671417236328	789.1696777343751	-1587.719970703125	182.7937469482422	832.7644653320314	-1577.071166992188	246.5829010009766	905.2201538085939	-1620.519287109375	262.6629638671875	932.5367431640626	-1548.077880859375	340.4646606445312	1019.912658691406	-1039.341552734375	217.2390594482422	922.4572753906251	-949.90185546875	187.4251251220703	870.434326171875	-921.591552734375	165.0901184082031	885.9190673828126	-966.4797973632812	177.4290924072266	802.8154907226562	-838.4087524414062	188.5365753173828	881.1906127929688	-827.36083984375	220.8302917480469	842.6452026367188	-818.1853637695312	264.1571960449219	924.6292114257812	-799.6314697265625	292.4028930664062	951.6102905273438	-869.4085083007811	
182	0.905	203.8606109619141	990.2858276367189	-2235.973388671875	267.623779296875	1040.084838867188	-216.7620544433593	537.5154418945312	1173.024780273438	-1193.112182617188	487.6451110839844	1200.259033203125	-1130.3994140625	494.9879150390625	1196.872192382812	-1265.893432617188	292.9135131835938	1072.618408203125	-1196.799072265625	164.3649444580078	958.4551391601564	-1203.829223632812	140.6591491699219	935.7516479492189	-1223.103393554688	132.7628631591797	929.6973876953126	-1173.97705078125	103.9067916870117	882.2169799804689	-1209.764282226562	74.17452239990234	826.5587158203126	-1208.684814453125	37.78910064697266	811.3683471679689	-1222.62109375	37.18033981323242	807.7391967773439	-1172.118408203125	1.428200960159302	759.9063110351564	-1201.925903320312	-49.62975692749023	660.4953613281251	-1227.271850585938	-48.50480270385742	656.8519287109376	-1175.877563476562	-64.03020477294922	599.5438842773439	-1205.014892578125	126.7993850708008	479.0510253906251	-1502.759765625	158.6745300292969	406.6507568359376	-1513.247802734375	173.6174011230469	451.4908142089845	-1531.461791992188	217.6562957763672	302.1148986816407	-1613.728637695312	161.9244689941406	258.3220214843751	-1576.8408203125	204.3596801757812	243.160369873047	-1600.149536132812	111.9043121337891	71.01380920410165	-1465.794677734375	313.62744140625	50.26989746093759	-1543.310546875	235.2336120605469	25.09985160827647	-1622.90771484375	113.198844909668	466.1012878417969	-911.5870361328125	167.7340087890625	498.2078857421876	-862.7119140625	163.528564453125	451.0130004882813	-877.7496337890625	200.4281616210938	313.8617248535157	-805.4605712890625	203.8409118652344	235.0307006835938	-804.193359375	171.9724273681641	263.9201965332032	-829.5671997070312	93.17465209960938	66.49664306640631	-967.6333618164062	280.1848754882812	46.91134643554692	-868.069580078125	189.6629638671875	37.86074447631841	-797.8841552734375	400.4018249511719	907.3989868164064	-1203.697021484375	354.4569091796875	765.8945922851564	-1199.84228515625	325.3370971679688	1022.540893554688	-1368.041259765625	198.1268768310547	918.0438842773439	-1458.692260742188	145.8662719726562	880.8491821289064	-1445.765747070312	175.3154907226562	861.8858032226564	-1482.861206054688	137.8611145019531	798.2298583984376	-1549.775390625	206.6290740966797	786.0719604492189	-1587.732421875	183.0883026123047	829.6878662109376	-1577.098999023438	246.9449462890625	902.0955200195314	-1620.52880859375	263.0293579101562	929.4042358398439	-1548.08056640625	340.8154907226562	1016.761108398438	-1039.321411132812	217.5016479492188	919.4139404296876	-949.8986206054688	187.6455230712891	867.4190673828125	-921.5742797851562	165.3296661376953	882.9111328125001	-966.4758911132812	177.5933990478516	799.829833984375	-838.3815307617188	188.7537841796875	878.2116088867188	-827.3544311523438	221.0137023925781	839.642578125	-818.1644287109375	264.4013671875	921.5994873046875	-799.6282348632812	292.6639099121094	948.540771484375	-869.4102172851561	
183	0.91	204.4168701171875	987.1154785156251	-2235.994384765625	267.8435363769531	1037.133056640625	-216.7785644531249	537.8314208984375	1169.932373046875	-1193.004150390625	487.9205627441406	1197.127807617188	-1130.337524414062	495.3412475585938	1193.740966796875	-1265.843872070312	293.2901611328125	1069.519775390625	-1196.823608398438	164.6741333007812	955.5220336914064	-1203.837158203125	140.9605865478516	932.8822021484376	-1223.112548828125	133.0585174560547	926.8258666992189	-1173.989013671875	104.119514465332	879.3992919921876	-1209.7763671875	74.32509613037109	823.8438720703126	-1208.678344726562	37.96369934082031	808.8420410156251	-1222.585815429688	37.37298202514648	805.1966552734376	-1172.082275390625	1.517651081085205	757.4217529296876	-1201.921142578125	-49.77618026733398	657.9080810546876	-1227.2705078125	-48.62759780883789	654.2493286132814	-1175.87255859375	-64.16314697265625	596.9531860351564	-1205.023803710938	126.8293914794922	477.5840148925782	-1503.018676757812	158.9205474853516	405.3455505371095	-1513.85791015625	173.7295837402344	450.3125915527345	-1531.857543945312	217.8760681152344	301.9030151367189	-1614.065063476562	162.1113739013672	258.2058105468751	-1577.117309570312	204.5214538574219	242.9783782958985	-1600.417114257812	111.9134979248047	71.02209472656259	-1465.803588867188	313.6348571777344	50.27014541625986	-1543.314819335938	235.2258605957031	25.08597183227549	-1622.9208984375	113.3662185668945	464.4583129882813	-911.3577270507812	167.7760009765625	496.9960327148438	-862.619140625	163.7547912597656	449.7203369140626	-877.4488525390625	200.7639770507812	313.6227111816407	-805.1636352539062	204.0729522705078	234.7861785888672	-803.9923706054688	172.24951171875	263.7472229003907	-829.3316650390625	93.21896362304688	66.51673126220709	-967.6522216796875	280.1961059570312	46.9008178710938	-868.0836791992188	189.6656646728516	37.8595695495606	-797.88671875	400.6927490234375	904.2210083007814	-1203.675537109375	354.6578369140625	762.7621459960939	-1199.820556640625	325.75048828125	1019.368225097656	-1368.052734375	198.5100555419922	914.9608764648439	-1458.707397460938	146.1681976318359	877.8105468750001	-1445.822387695312	175.6163635253906	858.8284912109376	-1482.895874023438	138.1125030517578	795.1978149414064	-1549.826171875	206.8909912109375	782.9815673828126	-1587.74560546875	183.3834686279297	826.6190185546876	-1577.127685546875	247.30810546875	898.9787597656251	-1620.537109375	263.3968200683594	926.2792358398439	-1548.08349609375	341.1639099121094	1013.611755371094	-1039.297241210938	217.7645568847656	916.3723754882814	-949.8917846679688	187.8634643554688	864.404541015625	-921.5533447265625	165.5687561035156	879.9052124023439	-966.468505859375	177.759033203125	796.8447875976562	-838.3504638671875	188.9735870361328	875.2344360351562	-827.3438110351562	221.1978454589844	836.6424560546875	-818.140869140625	264.6443786621094	918.5731811523438	-799.6231079101562	292.9235534667969	945.475341796875	-869.4104614257811	
184	0.915	204.9737701416016	983.9523315429689	-2236.013916015625	268.0610656738281	1034.181762695312	-216.7935180664062	538.1437377929688	1166.849853515625	-1192.897216796875	488.1940307617188	1194.0068359375	-1130.27734375	495.6878356933594	1190.6142578125	-1265.796020507812	293.66259765625	1066.429565429688	-1196.845825195312	164.9796142578125	952.5948486328126	-1203.842651367188	141.2590179443359	930.0173339843751	-1223.120727539062	133.3509674072266	923.9596557617189	-1173.998657226562	104.3302841186523	876.5861206054689	-1209.789184570312	74.47435760498047	821.1320800781251	-1208.6728515625	38.13979339599609	806.3200683593751	-1222.550048828125	37.56525802612305	802.6580200195314	-1172.044555664062	1.608659625053406	754.9409790039064	-1201.917358398438	-49.92966079711914	655.3109741210939	-1227.265869140625	-48.75539016723633	651.6366577148439	-1175.86376953125	-64.29969787597656	594.3519287109376	-1205.028564453125	126.8593826293945	476.1228332519532	-1503.269897460938	159.1659240722656	404.0525207519532	-1514.461547851562	173.8400115966797	449.1453857421876	-1532.244873046875	218.0949859619141	301.6938476562501	-1614.389282226562	162.2999267578125	258.0900878906251	-1577.381958007812	204.6825408935547	242.7987060546876	-1600.675537109375	111.9219207763672	71.0298614501954	-1465.810668945312	313.6419982910156	50.26913833618173	-1543.3173828125	235.2187347412109	25.07362747192393	-1622.932006835938	113.5333786010742	462.8135986328126	-911.1392822265625	167.8149871826172	495.7848815917969	-862.5384521484375	163.9805450439453	448.4298095703126	-877.1597900390625	201.0974731445312	313.3868103027344	-804.8750610351562	204.3058013916016	234.5449371337891	-803.800048828125	172.5252532958984	263.5741882324219	-829.1019897460938	93.26313018798828	66.53514862060553	-967.67041015625	280.2071533203125	46.89009475708013	-868.0980224609375	189.6684417724609	37.85846328735357	-797.889404296875	400.9821166992188	901.0493164062501	-1203.651977539062	354.8518371582031	759.6318969726564	-1199.795532226562	326.161865234375	1016.204528808594	-1368.061645507812	198.8891754150391	911.8868408203126	-1458.725341796875	146.4707183837891	874.7791137695314	-1445.879760742188	175.9216766357422	855.7797241210939	-1482.929321289062	138.3654327392578	792.1741943359376	-1549.87841796875	207.1538696289062	779.8992919921876	-1587.759399414062	183.6799621582031	823.5584716796876	-1577.157348632812	247.6727752685547	895.8705444335939	-1620.543701171875	263.765380859375	923.1627807617189	-1548.08642578125	341.5093383789062	1010.465515136719	-1039.268310546875	218.0281829833984	913.3325195312501	-949.8804931640625	188.0792083740234	861.39111328125	-921.528564453125	165.8074340820312	876.9013061523439	-966.4569702148438	177.9261474609375	793.8601684570312	-838.3156127929688	189.1954956054688	872.2588500976562	-827.329345703125	221.3829498291016	833.6448364257812	-818.114501953125	264.8861694335938	915.5504150390625	-799.6162109375	293.1817626953125	942.4141845703125	-869.4094238281249	
